================ ALEXANDRA STAN - LOLLIPOP HD 720P ==========================

Format                           : MPEG-4
Format profile                   : Base Media / Version 2
Codec ID                         : mp42
File size                        : 55.2 MiB
Duration                         : 3mn 59s
Overall bit rate                 : 1 933 Kbps
Encoded date                     : UTC 2011-02-08 21:31:28

Video
ID                               : 1
Format                           : AVC
Format/Info                      : Advanced Video Codec
Format profile                   : High@L3.1
Format settings, CABAC           : Yes
Format settings, ReFrames        : 1 frame
Codec ID                         : avc1
Codec ID/Info                    : Advanced Video Coding
Duration                         : 3mn 59s
Bit rate mode                    : Variable
Bit rate                         : 1 801 Kbps
Maximum bit rate                 : 3 933 Kbps
Width                            : 1 280 pixels
Height                           : 720 pixels
Display aspect ratio             : 16:9
Frame rate mode                  : Constant
Frame rate                       : 25.000 fps
Color space                      : YUV
Chroma subsampling               : 4:2:0
Bit depth                        : 8 bits
Scan type                        : Progressive
Bits/(Pixel*Frame)               : 0.078
Stream size                      : 51.4 MiB (93%)
Tagged date                      : UTC 2011-02-08 21:31:29

Audio
ID                               : 2
Format                           : AAC
Format/Info                      : Advanced Audio Codec
Format version                   : Version 4
Format profile                   : LC
Format settings, SBR             : No
Codec ID                         : 40
Duration                         : 3mn 59s
Bit rate mode                    : Variable
Bit rate                         : 128 Kbps
Maximum bit rate                 : 235 Kbps
Channel(s)                       : 2 channels
Channel positions                : Front: L R
Sampling rate                    : 44.1 KHz
Stream size                      : 3.64 MiB (7%)
Title                            : (C) 2007 Google Inc. v08.13.2007.
Encoded date                     : UTC 2011-02-08 21:31:28
Tagged date                      : UTC 2011-02-08 21:31:29

=================== SCREEN SHOTS ==================================
 
                   http://bayimg.com/iAIHDAaDp
                   http://bayimg.com/iAiHeAAdp
                   http://bayimg.com/iAiHFaADP

=====================================================================================
 ##  #  # # # # ### ### ###     ##  #   ###  #   ## ### ===========================
#   # # ### ### #   # #  #      # # #   #   # # #   # =============================  
#   # # ### ### ##  # #  #      ##  #   ##  ###  #  ##=============================  
#   # # # # # # #   # #  #      #   #   #   # #   # # =============================  
 ##  #  # # # # ### # #  #      #   ### ### # # ##  ###===========================
=====================================================================================